<svg xmlns="http://www.w3.org/2000/svg" viewBox="0 0 382.49 99.11"><g id="Layer_2" data-name="Layer 2"><g id="Default"><g id="POLYLINE"><rect x="213.23" y="37.15" width="14.17" height="14.17" transform="translate(33.25 168.74) rotate(-45)"/></g><g id="POLYLINE-2" data-name="POLYLINE"><path d="M170.21,4.15h0a14.18,14.18,0,0,1,20,0h0a14.19,14.19,0,0,1,0,20h0Z"/></g><g id="POLYLINE-3" data-name="POLYLINE"><path d="M160.18,14.17l70.16,70.16h0a14.19,14.19,0,0,1-20.05,0L160.18,34.22a14.19,14.19,0,0,1,0-20Z"/></g><g id="POLYLINE-4" data-name="POLYLINE"><path d="M190.25,84.33h0a14.18,14.18,0,0,1-20,0l-10-10a14.19,14.19,0,0,1,0-20.05h0Z"/></g><text transform="translate(238.27 74.01)" style="font-size:76.5px;font-family:P22UndergroundCYProBook"><tspan style="letter-spacing:-0.0639999489379085em">C</tspan><tspan x="51.02" y="0">o</tspan></text><text transform="translate(26.5 74.01)" style="font-size:76.5px;font-family:P22UndergroundCYProBook"><tspan style="letter-spacing:-0.050002553104575166em">P</tspan><tspan x="39.09" y="0" style="letter-spacing:-0.06299785539215687em">u</tspan><tspan x="80.17" y="0">s</tspan></text></g></g></svg>