<svg xmlns="http://www.w3.org/2000/svg" viewBox="0 0 96 96">
  <rect width="96" height="96" fill="#ffffff"/>
  <g transform="translate(20.15 14.8) scale(0.75)" fill="#1a1a1a">
    <rect x="57.2" y="37.15" width="14.17" height="14.17" transform="translate(-12.45 58.41) rotate(-45)"/>
    <path d="M14.17,4.15h0a14.19,14.19,0,0,1,20,0h0a14.19,14.19,0,0,1,0,20h0Z"/>
    <path d="M4.15,14.17,74.31,84.33h0a14.19,14.19,0,0,1-20.05,0L4.15,34.22a14.19,14.19,0,0,1,0-20Z"/>
    <path d="M34.22,84.33h0a14.19,14.19,0,0,1-20,0l-10-10a14.19,14.19,0,0,1,0-20.05h0Z"/>
  </g>
</svg>
